<?xml version="1.0" encoding="UTF-8"?>
<svg width="24" height="24" viewBox="0 0 24 24" fill="none" xmlns="http://www.w3.org/2000/svg">
  <path d="M21 3.6c-3-3-7.1-3-9.9-.3L9.6 4.8c2.8-2.7 6.9-2.7 9.9.3 2.7 2.7 2.7 7.1 0 9.9l-4.2 4.2c-2.7 2.7-7.1 2.7-9.9 0-2.7-2.7-2.7-7.1 0-9.9l1.5-1.5c-.6 2.1-.2 4.3 1.1 6.1l-.7.7c-1.9 1.9-1.9 5.1 0 7 1.9 1.9 5.1 1.9 7 0l4.2-4.2c1.9-1.9 1.9-5.1 0-7-1.9-1.9-5.1-1.9-7 0l-.7.7c-1.8-1.3-4.1-1.7-6.1-1.1l1.5-1.5c2.8-2.7 7.1-2.7 9.9 0 2.7 2.7 2.7 7.1 0 9.9L12 21c-2.8 2.7-7.1 2.7-9.9 0-3-3-3-7.1-.3-9.9L3.3 9c-2.7 2.8-2.7 7.1 0 9.9 3 3 7.1 3 9.9.3l1.5-1.5c-2.7 2.8-7.1 2.8-9.9 0-2.7-2.7-2.7-7.1 0-9.9l4.2-4.2z" fill="#22C55E"/>
</svg> 